<svg width="44" height="30" viewBox="0 0 44 30" fill="none" xmlns="http://www.w3.org/2000/svg">
<path fill-rule="evenodd" clip-rule="evenodd" d="M43.875 15C43.875 14.5856 43.7104 14.1882 43.4173 13.8952C43.1243 13.6021 42.7269 13.4375 42.3125 13.4375H5.45936L15.2937 3.60627C15.439 3.461 15.5542 3.28853 15.6329 3.09872C15.7115 2.90891 15.752 2.70547 15.752 2.50002C15.752 2.29457 15.7115 2.09113 15.6329 1.90132C15.5542 1.71151 15.439 1.53905 15.2937 1.39377C15.1485 1.2485 14.976 1.13326 14.7862 1.05464C14.5964 0.976013 14.3929 0.935547 14.1875 0.935547C13.982 0.935547 13.7786 0.976013 13.5888 1.05464C13.399 1.13326 13.2265 1.2485 13.0812 1.39377L0.581235 13.8938C0.435725 14.0389 0.320279 14.2113 0.241509 14.4012C0.162739 14.591 0.122192 14.7945 0.122192 15C0.122192 15.2055 0.162739 15.409 0.241509 15.5989C0.320279 15.7887 0.435725 15.9611 0.581235 16.1063L13.0812 28.6063C13.2265 28.7515 13.399 28.8668 13.5888 28.9454C13.7786 29.024 13.982 29.0645 14.1875 29.0645C14.3929 29.0645 14.5964 29.024 14.7862 28.9454C14.976 28.8668 15.1485 28.7515 15.2937 28.6063C15.439 28.461 15.5542 28.2885 15.6329 28.0987C15.7115 27.9089 15.752 27.7055 15.752 27.5C15.752 27.2946 15.7115 27.0911 15.6329 26.9013C15.5542 26.7115 15.439 26.539 15.2937 26.3938L5.45936 16.5625H42.3125C42.7269 16.5625 43.1243 16.3979 43.4173 16.1049C43.7104 15.8118 43.875 15.4144 43.875 15Z" fill="#E7E5E5"/>
</svg>
