<svg width="96" height="77" viewBox="0 0 96 77" fill="none" xmlns="http://www.w3.org/2000/svg">
<path d="M95.4757 42.8784C94.9139 38.9712 93.5446 35.2659 91.4047 31.8665C89.5384 28.8998 87.1438 26.2612 84.2855 24.0186L84.2932 24.0116L54.2743 1.22455C54.2527 1.20572 54.2301 1.18798 54.2067 1.1714C53.2087 0.415778 51.8574 0 50.4032 0C48.9472 0 47.5431 0.416704 46.4516 1.17381C45.278 1.98407 44.6071 3.05916 44.5603 4.20352C44.5173 5.27121 45.0327 6.29852 46.0151 7.09934C47.9471 8.60595 49.8748 10.1453 51.8051 11.6866C53.6784 13.183 55.6087 14.7241 57.5297 16.2244L20.7614 16.1998C16.5566 16.1998 13.6934 18.1512 13.1045 21.4184C12.8457 22.8494 13.3024 24.4229 14.3233 25.628C15.4064 26.9055 16.9789 27.6102 18.7511 27.6102L21.5541 27.6121C25.4263 27.6121 29.3155 27.6026 33.1996 27.5934L36.9035 27.5849L3.53317 51.9848L3.40069 52.0806C1.53672 53.4925 0.316441 55.4722 0.053159 57.5114C-0.146411 59.0564 0.218249 60.4682 1.10816 61.5957C2.16879 62.9399 3.82475 63.6792 5.77135 63.6792C7.68366 63.6792 9.63495 62.963 11.2682 61.659L29.2887 47.0836C29.2117 47.7954 29.1182 48.8395 29.1289 49.5974C29.1491 50.7973 29.5389 53.2049 30.156 55.1595C31.431 59.1766 33.5787 62.8519 36.539 66.0796C39.6193 69.4377 43.3709 72.1003 47.6887 73.9918C52.2535 75.9871 57.1607 77 62.2744 77H62.3218C67.4518 76.9878 72.3745 75.9588 76.9541 73.9407C81.2791 72.0268 85.0289 69.3534 88.0976 65.9959C91.0542 62.7517 93.1989 59.0703 94.4715 55.0566C95.101 53.0697 95.5043 51.0196 95.6738 48.9444C95.831 46.9386 95.7633 44.8977 95.4757 42.8784V42.8784ZM62.6482 62.1318C51.3784 62.1318 42.2394 54.052 42.2394 44.0845C42.2394 34.118 51.3786 26.0382 62.6482 26.0382C73.9182 26.0382 83.0563 34.118 83.0563 44.0845C83.0566 54.052 73.9182 62.1318 62.6482 62.1318ZM74.4176 42.4986C74.5838 45.4735 73.3815 48.2358 71.2702 50.2806C69.1225 52.3637 66.058 53.6722 62.631 53.6722C59.2055 53.6722 56.1404 52.3637 53.9919 50.2806C51.8816 48.2358 50.6817 45.4739 50.847 42.501C51.0089 39.6113 52.4351 37.0605 54.5833 35.2544C56.6958 33.4785 59.5323 32.3951 62.6308 32.3951C65.7296 32.3951 68.5654 33.4789 70.678 35.2544C72.8274 37.0605 74.254 39.6094 74.4176 42.4986V42.4986Z" fill="#E7E5E5"/>
</svg>
