<svg width="67" height="77" viewBox="0 0 67 77" fill="none" xmlns="http://www.w3.org/2000/svg">
<path d="M0.373047 0.381254L6.39131 69.1241L33.3949 76.7596L60.4733 69.1127L66.4953 0.377441H0.373047V0.381254ZM12.6753 14.4325H33.4024V22.8648H13.4276L12.6753 14.4325ZM14.1649 31.4953H33.4024V39.9275H14.9097L14.1649 31.4953ZM16.4367 57.383L15.2765 44.1437H23.5853L24.1729 50.8681L33.3911 53.4032L33.3986 53.3994V62.1709L33.4286 62.1633V53.3917L42.6319 50.8605L43.5937 39.9275H33.4323V31.4953H44.3161L45.0684 22.861H33.4323V14.4325H54.1407L52.6473 31.4991L52.4452 33.7634L50.499 55.9611L50.3755 57.3868L33.4323 62.1709L33.3949 62.1823L16.4367 57.383Z" fill="#E7E5E5"/>
<path d="M42.6369 50.8645L33.4336 53.3919V39.9277H43.5988L42.6369 50.8645Z" fill="#E7E5E5"/>
<path d="M44.3174 31.4957H33.4336V22.8652H45.0696L44.3174 31.4957Z" fill="#E7E5E5"/>
<path d="M60.4596 6.00049L55.3134 64.7367L33.4336 70.916V62.1636L50.3768 57.3832L50.5003 55.9575L52.4428 33.7599L52.6449 31.4955L54.1419 14.4328H33.4336V6.00049H60.4596Z" fill="#E7E5E5"/>
<path d="M33.4023 53.3995V62.171L33.4323 62.1634V53.3919L33.4023 53.3995ZM33.4023 14.4326V22.8649H33.4323V14.4326H33.4023ZM33.4023 31.4954V39.9277H33.4323V31.4954H33.4023Z" fill="#E7E5E5"/>
<path d="M33.4323 14.4326H33.4023V22.8648H33.4323V14.4326Z" fill="#E7E5E5"/>
<path d="M33.4323 31.4956H33.4023V39.9279H33.4323V31.4956Z" fill="#E7E5E5"/>
<path d="M33.4323 53.3921V62.1636L33.4023 62.1713V53.3997L33.4323 53.3921Z" fill="#E7E5E5"/>
</svg>
