<svg width="67" height="77" viewBox="0 0 67 77" fill="none" xmlns="http://www.w3.org/2000/svg">
<path d="M0.373047 0.381498L6.39131 69.1243L33.3949 76.7599L60.4733 69.1129L66.4953 0.377686H0.373047V0.381498ZM12.6753 14.4327H33.4024V22.865H13.4276L12.6753 14.4327ZM14.1649 31.4955H33.4024V39.9278H14.9097L14.1649 31.4955ZM16.4367 57.3832L15.2765 44.1439H23.5853L24.1729 50.8684L33.3911 53.4034L33.3986 53.3996V62.1711L33.4286 62.1635V53.392L42.6319 50.8608L43.5937 39.9278H33.4323V31.4955H44.3161L45.0684 22.8612H33.4323V14.4327H54.1407L52.6473 31.4993L52.4452 33.7637L50.499 55.9613L50.3755 57.387L33.4323 62.1711L33.3949 62.1826L16.4367 57.3832Z" fill="#BBBBBB"/>
<path d="M42.6359 50.8645L33.4326 53.3919V39.9277H43.5978L42.6359 50.8645Z" fill="#BBBBBB"/>
<path d="M44.3164 31.4955H33.4326V22.865H45.0687L44.3164 31.4955Z" fill="#BBBBBB"/>
<path d="M60.4586 6.00049L55.3124 64.7367L33.4326 70.916V62.1636L50.3758 57.3832L50.4993 55.9575L52.4418 33.7599L52.6439 31.4955L54.141 14.4328H33.4326V6.00049H60.4586Z" fill="#BBBBBB"/>
<path d="M33.4023 53.3996V62.1712L33.4323 62.1635V53.392L33.4023 53.3996ZM33.4023 14.4327V22.865H33.4323V14.4327H33.4023ZM33.4023 31.4955V39.9278H33.4323V31.4955H33.4023Z" fill="#BBBBBB"/>
<path d="M33.4323 14.4327H33.4023V22.865H33.4323V14.4327Z" fill="#BBBBBB"/>
<path d="M33.4323 31.4954H33.4023V39.9276H33.4323V31.4954Z" fill="#BBBBBB"/>
<path d="M33.4323 53.3918V62.1634L33.4023 62.171V53.3995L33.4323 53.3918Z" fill="#BBBBBB"/>
</svg>
