<svg width="30" height="31" viewBox="0 0 30 31" fill="none" xmlns="http://www.w3.org/2000/svg">
<path d="M26.6666 5.89087H3.33329C2.89127 5.89087 2.46734 6.06646 2.15478 6.37902C1.84222 6.69158 1.66663 7.11551 1.66663 7.55754V24.2242C1.66663 24.6662 1.84222 25.0901 2.15478 25.4027C2.46734 25.7153 2.89127 25.8909 3.33329 25.8909H26.6666C27.1087 25.8909 27.5326 25.7153 27.8451 25.4027C28.1577 25.0901 28.3333 24.6662 28.3333 24.2242V7.55754C28.3333 7.11551 28.1577 6.69158 27.8451 6.37902C27.5326 6.06646 27.1087 5.89087 26.6666 5.89087ZM25.3833 24.2242H4.71663L10.55 18.1909L9.34996 17.0325L3.33329 23.2575V8.8242L13.6916 19.1325C14.0039 19.443 14.4263 19.6172 14.8666 19.6172C15.3069 19.6172 15.7294 19.443 16.0416 19.1325L26.6666 8.56587V23.1492L20.5333 17.0159L19.3583 18.1909L25.3833 24.2242ZM4.42496 7.55754H25.3166L14.8666 17.9492L4.42496 7.55754Z" fill="#E7E5E5"/>
</svg>
