<svg width="21" height="30" viewBox="0 0 21 30" fill="none" xmlns="http://www.w3.org/2000/svg">
<g clip-path="url(#clip0_1691:323)">
<path d="M5.03259 30C7.80951 30 10.0632 27.76 10.0632 25V20H5.03259C2.25568 20 0.00195312 22.24 0.00195312 25C0.00195312 27.76 2.25568 30 5.03259 30Z" fill="#E7E5E5"/>
<path d="M0.00195312 15C0.00195312 12.24 2.25568 10 5.03259 10H10.0632V20H5.03259C2.25568 20 0.00195312 17.76 0.00195312 15Z" fill="#E7E5E5"/>
<path d="M0.00292969 5C0.00292969 2.24 2.25666 0 5.03357 0H10.0642V10H5.03357C2.25666 10 0.00292969 7.76 0.00292969 5Z" fill="#E7E5E5"/>
<path d="M10.0635 0H15.0941C17.871 0 20.1248 2.24 20.1248 5C20.1248 7.76 17.871 10 15.0941 10H10.0635V0Z" fill="#E7E5E5"/>
<path d="M20.1248 15C20.1248 17.76 17.871 20 15.0941 20C12.3172 20 10.0635 17.76 10.0635 15C10.0635 12.24 12.3172 10 15.0941 10C17.871 10 20.1248 12.24 20.1248 15Z" fill="#E7E5E5"/>
</g>
<defs>
<clipPath id="clip0_1691:323">
<rect width="20.1266" height="30" fill="white"/>
</clipPath>
</defs>
</svg>
