<svg width="23" height="23" viewBox="0 0 23 23" fill="none" xmlns="http://www.w3.org/2000/svg">
<path d="M15.6805 22V18.9905C15.7199 18.4905 15.6523 17.9879 15.4824 17.516C15.3124 17.0441 15.0439 16.6138 14.6948 16.2537C17.9874 15.8867 21.4478 14.6389 21.4478 8.91353C21.4475 7.44951 20.8844 6.04164 19.8749 4.9813C20.3529 3.70045 20.3191 2.28468 19.7805 1.0281C19.7805 1.0281 18.5432 0.661087 15.6805 2.58002C13.2771 1.92865 10.7437 1.92865 8.34035 2.58002C5.47769 0.661087 4.24035 1.0281 4.24035 1.0281C3.70176 2.28468 3.66796 3.70045 4.14597 4.9813C3.12897 6.0495 2.56524 7.4701 2.57308 8.94499C2.57308 14.6284 6.03344 15.8762 9.32603 16.2852C8.98104 16.6416 8.71498 17.0668 8.54515 17.5329C8.37533 17.999 8.30555 18.4957 8.34035 18.9905V22" stroke="#FAF8F8" stroke-width="1.875" stroke-linecap="round" stroke-linejoin="round"/>
<path d="M8.34017 19.9028C5.19438 20.9231 2.57289 19.9028 1 16.757" stroke="#FAF8F8" stroke-width="1.875" stroke-linecap="round" stroke-linejoin="round"/>
</svg>
