<svg width="70" height="77" viewBox="0 0 70 77" fill="none" xmlns="http://www.w3.org/2000/svg">
<g clip-path="url(#clip0_1120:650)">
<path d="M63.1474 5.3584L57.7374 67.1048L34.7363 73.6008V64.3998L52.5478 59.3744L52.6777 57.8757L54.7197 34.5404L54.9321 32.16L56.5059 14.2228H34.7363V5.3584H63.1474Z" fill="#E7E5E5"/>
<path d="M34.7051 55.1865V64.4076L34.7366 64.3996V55.1785L34.7051 55.1865ZM34.7051 14.2227V23.0871H34.7366V14.2227H34.7051ZM34.7051 32.1599V41.0243H34.7366V32.1599H34.7051Z" fill="#E7E5E5"/>
<path d="M34.7366 14.2227H34.7051V23.087H34.7366V14.2227Z" fill="#E7E5E5"/>
<path d="M34.7366 32.1592H34.7051V41.0236H34.7366V32.1592Z" fill="#E7E5E5"/>
<path d="M34.7366 55.1777V64.3988L34.7051 64.4068V55.1858L34.7366 55.1777Z" fill="#E7E5E5"/>
<g clip-path="url(#clip1_1120:650)">
<path d="M68.9013 3.44922L63.4914 65.1956L40.4902 71.6916V62.4906L58.3017 57.4653L58.4316 55.9665L60.4736 32.6313L60.6861 30.2509L62.2599 12.3136H40.4902V3.44922H68.9013Z" fill="#E7E5E5"/>
<path d="M40.459 53.2783V62.4994L40.4905 62.4914V53.2703L40.459 53.2783ZM40.459 12.3145V21.1789H40.4905V12.3145H40.459ZM40.459 30.2517V39.1161H40.4905V30.2517H40.459Z" fill="#E7E5E5"/>
<path d="M40.4905 12.3145H40.459V21.1788H40.4905V12.3145Z" fill="#E7E5E5"/>
<path d="M40.4905 30.251H40.459V39.1154H40.4905V30.251Z" fill="#E7E5E5"/>
<path d="M40.4905 53.2695V62.4906L40.459 62.4986V53.2775L40.4905 53.2695Z" fill="#E7E5E5"/>
<path d="M2.63086 -0.421875L8.8785 69.6252L36.8999 77.4034L64.9992 69.6122L71.2554 -0.421875H2.63086ZM58.4359 13.898L58.2284 16.2025L57.8349 20.5564L57.662 22.489H36.9432V13.898H58.4359ZM15.6061 16.2025L15.3985 13.898H36.9086V22.489H24.7894L25.5763 31.2876H36.9129V39.8743H17.716L15.6061 16.2025ZM19.3071 57.6574L18.1051 44.1677H26.7308L27.3404 51.0206L36.9086 53.6062L36.9172 53.6018V62.5388L36.9475 62.5301V53.5932L46.4984 51.0163L47.4928 39.8743H36.9432V31.2833H56.8837L56.6762 33.5921L54.657 56.209L54.5273 57.6617L36.9432 62.5301L36.9042 62.5388L19.3071 57.6574Z" fill="#E7E5E5"/>
<path d="M46.4943 51.016L36.9434 53.5929V39.874H47.493L46.4943 51.016Z" fill="#E7E5E5"/>
<path d="M64.995 5.30664L59.651 65.1542L36.9434 71.4494V62.5298L54.5275 57.6571L54.6529 56.2087L56.6721 33.5918L56.8839 31.283H36.9434V22.4887H57.6665L57.8351 20.5561L58.2286 16.2022L58.4361 13.8977H36.9434V5.30664H64.995Z" fill="#E7E5E5"/>
<path d="M36.9424 13.8984H36.9121V22.4895H36.9424V13.8984Z" fill="#E7E5E5"/>
<path d="M36.9424 31.2842H36.9121V39.8752H36.9424V31.2842Z" fill="#E7E5E5"/>
<path d="M36.9424 53.5938V62.5307L36.9121 62.5393V53.6024L36.9424 53.5938Z" fill="#E7E5E5"/>
<path d="M36.9424 31.2842H36.9121V39.8752H36.9424V31.2842Z" fill="#E7E5E5"/>
<path d="M36.9121 53.6024L36.9424 53.5938V62.5307L36.9121 62.5393V53.6024Z" fill="#E7E5E5"/>
<path d="M36.9424 13.8984H36.9121V22.4895H36.9424V13.8984Z" fill="#E7E5E5"/>
</g>
</g>
<defs>
<clipPath id="clip0_1120:650">
<rect width="69.6164" height="77" fill="white"/>
</clipPath>
<clipPath id="clip1_1120:650">
<rect width="69.7588" height="100.186" fill="white" transform="translate(5.61133 -22.0977)"/>
</clipPath>
</defs>
</svg>
