<svg width="70" height="77" viewBox="0 0 70 77" fill="none" xmlns="http://www.w3.org/2000/svg">
<g clip-path="url(#clip0)">
<path d="M63.1482 5.35791L57.7383 67.1043L34.7372 73.6003V64.3993L52.5487 59.374L52.6785 57.8752L54.7205 34.54L54.933 32.1596L56.5068 14.2223H34.7372V5.35791H63.1482Z" fill="#BBBBBB"/>
<path d="M34.7057 55.1863V64.4074L34.7372 64.3993V55.1783L34.7057 55.1863ZM34.7057 14.2224V23.0868H34.7372V14.2224H34.7057ZM34.7057 32.1596V41.024H34.7372V32.1596H34.7057Z" fill="#BBBBBB"/>
<path d="M34.7372 14.2224H34.7057V23.0868H34.7372V14.2224Z" fill="#BBBBBB"/>
<path d="M34.7372 32.1595H34.7057V41.024H34.7372V32.1595Z" fill="#BBBBBB"/>
<path d="M34.7372 55.1782V64.3993L34.7057 64.4073V55.1862L34.7372 55.1782Z" fill="#BBBBBB"/>
<g clip-path="url(#clip1)">
<path d="M68.9018 3.45007L63.4918 65.1964L40.4907 71.6925V62.4914L58.3022 57.4661L58.4321 55.9673L60.4741 32.6321L60.6865 30.2517L62.2603 12.3145H40.4907V3.45007H68.9018Z" fill="#BBBBBB"/>
<path d="M40.4592 53.2784V62.4995L40.4907 62.4915V53.2704L40.4592 53.2784ZM40.4592 12.3146V21.179H40.4907V12.3146H40.4592ZM40.4592 30.2518V39.1162H40.4907V30.2518H40.4592Z" fill="#BBBBBB"/>
<path d="M40.4907 12.3146H40.4592V21.1789H40.4907V12.3146Z" fill="#BBBBBB"/>
<path d="M40.4907 30.2516H40.4592V39.116H40.4907V30.2516Z" fill="#BBBBBB"/>
<path d="M40.4907 53.2703V62.4913L40.4592 62.4994V53.2783L40.4907 53.2703Z" fill="#BBBBBB"/>
<path d="M2.63013 -0.421631L8.87777 69.6254L36.8992 77.4036L64.9984 69.6125L71.2547 -0.421631H2.63013ZM58.4352 13.8982L58.2276 16.2027L57.8342 20.5566L57.6612 22.4893H36.9424V13.8982H58.4352ZM15.6053 16.2027L15.3978 13.8982H36.9078V22.4893H24.7887L25.5756 31.2878H36.9122V39.8746H17.7153L15.6053 16.2027ZM19.3064 57.6576L18.1044 44.1679H26.73L27.3396 51.0209L36.9078 53.6064L36.9165 53.6021V62.539L36.9467 62.5304V53.5934L46.4976 51.0165L47.4921 39.8746H36.9424V31.2835H56.883L56.6754 33.5923L54.6563 56.2092L54.5266 57.662L36.9424 62.5304L36.9035 62.539L19.3064 57.6576Z" fill="#BBBBBB"/>
<path d="M46.4932 51.0165L36.9423 53.5934V39.8745H47.4919L46.4932 51.0165Z" fill="#BBBBBB"/>
<path d="M64.9941 5.30713L59.6501 65.1547L36.9424 71.4499V62.5303L54.5266 57.6576L54.6519 56.2092L56.6711 33.5923L56.8829 31.2835H36.9424V22.4892H57.6655L57.8341 20.5566L58.2276 16.2027L58.4351 13.8982H36.9424V5.30713H64.9941Z" fill="#BBBBBB"/>
<path d="M36.9424 13.8982H36.9121V22.4892H36.9424V13.8982Z" fill="#BBBBBB"/>
<path d="M36.9424 31.2834H36.9121V39.8745H36.9424V31.2834Z" fill="#BBBBBB"/>
<path d="M36.9424 53.5934V62.5303L36.9121 62.539V53.602L36.9424 53.5934Z" fill="#BBBBBB"/>
<path d="M36.9424 31.2834H36.9121V39.8745H36.9424V31.2834Z" fill="#BBBBBB"/>
<path d="M36.9121 53.602L36.9424 53.5934V62.5303L36.9121 62.539V53.602Z" fill="#BBBBBB"/>
<path d="M36.9424 13.8982H36.9121V22.4892H36.9424V13.8982Z" fill="#BBBBBB"/>
</g>
</g>
<defs>
<clipPath id="clip0">
<rect width="69.6164" height="77" fill="white"/>
</clipPath>
<clipPath id="clip1">
<rect width="69.7588" height="100.186" fill="white" transform="translate(5.61133 -22.0973)"/>
</clipPath>
</defs>
</svg>
