<svg width="68" height="77" viewBox="0 0 68 77" fill="none" xmlns="http://www.w3.org/2000/svg">
<g clip-path="url(#clip0)">
<path d="M6.25995 69.2118L-0.00280762 0.00427246L67.4666 0.0306872L61.2565 69.159L33.6793 76.9779L6.25995 69.2118ZM56.1778 65.4345L61.4143 6.15899H33.7845L33.995 71.5364L56.1778 65.4345ZM31.2057 14.8496H24.4956L24.4167 50.325L11.3912 46.759L11.4175 54.8684L31.2057 60.2307V14.8496Z" fill="#BBBBBB"/>
<path d="M33.7848 6.1322H61.4146L56.1781 65.4076L33.7848 71.5095V6.1322ZM54.7571 55.4756L56.5728 33.3133L43.1526 34.819V22.985L57.4675 22.9322L58.0464 14.8492L36.4425 14.9548L36.732 44.3812L49.7838 42.136L49.5996 48.6869L36.4425 52.2001L36.5741 60.2303L54.7571 55.4756Z" fill="#BBBBBB"/>
</g>
<defs>
<clipPath id="clip0">
<rect width="67.4703" height="77" fill="white"/>
</clipPath>
</defs>
</svg>
