<svg width="68" height="77" viewBox="0 0 68 77" fill="none" xmlns="http://www.w3.org/2000/svg">
<path d="M6.26081 69.2119L-0.00195312 0.00439453L67.4674 0.0308092L61.2573 69.1591L33.6801 76.978L6.26081 69.2119ZM56.1787 65.4346L61.4152 6.15911H33.7854L33.9959 71.5365L56.1787 65.4346V65.4346ZM31.2066 14.8497H24.4965L24.4175 50.3251L11.3921 46.7591L11.4184 54.8685L31.2066 60.2308V14.8497V14.8497Z" fill="#E7E5E5"/>
<path d="M33.7852 6.13232H61.415L56.1785 65.4078L33.7852 71.5096V6.13232ZM54.7575 55.4757L56.5732 33.3134L43.153 34.8191V22.9851L57.4679 22.9323L58.0468 14.8493L36.4429 14.955L36.7323 44.3814L49.7841 42.1361L49.5999 48.687L36.4429 52.2002L36.5745 60.2304L54.7575 55.4757Z" fill="#E7E5E5"/>
</svg>
