<svg width="20" height="19" viewBox="0 0 20 19" fill="none" xmlns="http://www.w3.org/2000/svg">
<path d="M13.4582 6.03247C14.8643 6.03247 16.2129 6.59106 17.2072 7.58537C18.2015 8.57967 18.7601 9.92823 18.7601 11.3344V17.52H15.2255V11.3344C15.2255 10.8657 15.0393 10.4161 14.7078 10.0847C14.3764 9.75328 13.9269 9.56708 13.4582 9.56708C12.9894 9.56708 12.5399 9.75328 12.2085 10.0847C11.8771 10.4161 11.6909 10.8657 11.6909 11.3344V17.52H8.15625V11.3344C8.15625 9.92823 8.71484 8.57967 9.70915 7.58537C10.7034 6.59106 12.052 6.03247 13.4582 6.03247V6.03247Z" stroke="#E7E5E5" stroke-width="1.41384" stroke-linecap="round" stroke-linejoin="round"/>
<path d="M1.08691 6.91614H4.62152V17.52H1.08691V6.91614Z" stroke="#E7E5E5" stroke-width="1.41384" stroke-linecap="round" stroke-linejoin="round"/>
<path d="M2.85422 4.26508C3.83027 4.26508 4.62152 3.47383 4.62152 2.49777C4.62152 1.52172 3.83027 0.730469 2.85422 0.730469C1.87816 0.730469 1.08691 1.52172 1.08691 2.49777C1.08691 3.47383 1.87816 4.26508 2.85422 4.26508Z" stroke="#E7E5E5" stroke-width="1.41384" stroke-linecap="round" stroke-linejoin="round"/>
</svg>
