<svg width="121" height="58" viewBox="0 0 121 58" fill="none" xmlns="http://www.w3.org/2000/svg">
<path fill-rule="evenodd" clip-rule="evenodd" d="M24.1 19.2C27.9 19.2 30.4 19.9 31.6 21.3C32.9 22.7 33.1 25.1 32.5 28.4C31.8 31.9 30.5 34.4 28.6 35.9C26.7 37.4 23.7 38.2 19.7 38.2H13.7L17.4 19.2H24.1ZM0 57.4H9.89999L12.2 45.3H20.7C24.4 45.3 27.5 44.9 29.9 44.1C32.3 43.3 34.5 42 36.5 40.2C38.2 38.7 39.5 37 40.5 35.2C41.5 33.4 42.3 31.3 42.7 29.1C43.7 23.7 43 19.5 40.3 16.5C37.7 13.5 33.5 12 27.8 12H8.8L0 57.4Z" fill="#BBBBBB"/>
<path fill-rule="evenodd" clip-rule="evenodd" d="M50 0H59.8L57.5 12.1H66.2C71.7 12.1 75.5 13.1 77.6 15C79.7 16.9 80.3 20 79.5 24.3L75.3999 45.4H65.3999L69.2999 25.3C69.6999 23 69.5999 21.5 68.7999 20.6C67.9999 19.8 66.3999 19.4 63.8999 19.4H56.1L51 45.4H41.2L50 0Z" fill="#BBBBBB"/>
<path fill-rule="evenodd" clip-rule="evenodd" d="M101.2 19.2C105 19.2 107.5 19.9 108.7 21.3C110 22.7 110.2 25.1 109.6 28.4C108.9 31.9 107.6 34.4 105.7 35.9C103.8 37.4 100.8 38.2 96.8001 38.2H90.8001L94.5001 19.2H101.2ZM77.1001 57.4H87.0001L89.3001 45.3H97.8001C101.5 45.3 104.6 44.9 107 44.1C109.4 43.3 111.6 42 113.6 40.2C115.3 38.7 116.6 37 117.6 35.2C118.6 33.4 119.4 31.3 119.8 29.1C120.8 23.7 120.1 19.5 117.4 16.5C114.8 13.5 110.6 12 104.9 12H85.9001L77.1001 57.4Z" fill="#BBBBBB"/>
</svg>
