<svg width="22" height="22" viewBox="0 0 22 22" fill="none" xmlns="http://www.w3.org/2000/svg">
<path d="M19.4346 21.6845H19.296C3.27377 20.7631 0.99886 7.24411 0.680862 3.11829C0.655239 2.79751 0.693165 2.47482 0.792467 2.16871C0.891769 1.86261 1.05049 1.57911 1.25955 1.33445C1.46861 1.08979 1.72388 0.888793 2.01075 0.742963C2.29762 0.597134 2.61045 0.509343 2.93131 0.48462H7.42405C7.75065 0.484304 8.06983 0.582066 8.34023 0.765242C8.61064 0.948419 8.81981 1.20857 8.94065 1.512L10.18 4.56152C10.2994 4.85794 10.329 5.1829 10.2652 5.49601C10.2014 5.80913 10.047 6.09661 9.82126 6.32273L8.0845 8.0758C8.35579 9.61748 9.09409 11.0386 10.1995 12.147C11.3049 13.2553 12.7241 13.9973 14.2651 14.2727L16.0345 12.5196C16.264 12.2963 16.5542 12.1456 16.8688 12.0861C17.1835 12.0267 17.5087 12.0612 17.8038 12.1853L20.8778 13.4165C21.1767 13.5412 21.4316 13.752 21.6102 14.0221C21.7888 14.2922 21.883 14.6093 21.8807 14.9331V19.2383C21.8807 19.8871 21.623 20.5093 21.1643 20.968C20.7055 21.4268 20.0833 21.6845 19.4346 21.6845ZM3.127 2.11538C2.91075 2.11538 2.70335 2.20128 2.55044 2.3542C2.39753 2.50711 2.31162 2.71451 2.31162 2.93076V2.99599C2.68669 7.82303 5.09206 19.2383 19.3857 20.0537C19.4928 20.0603 19.6002 20.0457 19.7016 20.0108C19.8031 19.9758 19.8967 19.9212 19.977 19.8499C20.0573 19.7787 20.1227 19.6924 20.1696 19.5958C20.2164 19.4993 20.2437 19.3944 20.25 19.2873V14.9331L17.176 13.7019L14.8358 16.0257L14.4445 15.9768C7.35066 15.0881 6.38852 7.99426 6.38852 7.92088L6.33959 7.5295L8.65527 5.18936L7.4322 2.11538H3.127Z" fill="#E7E5E5"/>
</svg>
