<svg width="26" height="26" viewBox="0 0 26 26" fill="none" xmlns="http://www.w3.org/2000/svg">
<g clip-path="url(#clip0_1699:396)">
<path d="M0.742373 9.15758C0.742373 9.15758 0.126897 8.71244 0.865469 8.11805L2.58624 6.5742C2.58624 6.5742 3.07862 6.05444 3.59921 6.5073L19.4785 18.5699V24.3542C19.4785 24.3542 19.4708 25.2625 18.3091 25.1622L0.742373 9.15758Z" fill="#E7E5E5"/>
<path d="M4.8355 12.886L0.742586 16.6195C0.742586 16.6195 0.322011 16.9334 0.742586 17.4944L2.64287 19.2286C2.64287 19.2286 3.09422 19.7149 3.76098 19.1617L8.10009 15.8605L4.8355 12.886Z" fill="#E7E5E5"/>
<path d="M12.0217 12.917L19.5279 7.1661L19.4792 1.41268C19.4792 1.41268 19.1586 0.157017 18.0893 0.81058L8.10059 9.93217L12.0217 12.917Z" fill="#E7E5E5"/>
<path d="M18.3104 25.1699C18.7464 25.6176 19.2746 25.4709 19.2746 25.4709L25.1243 22.5788C25.8731 22.0667 25.7679 21.4312 25.7679 21.4312V4.16062C25.7679 3.40156 24.9935 3.1391 24.9935 3.1391L19.9235 0.686953C18.8156 -6.07967e-05 18.0898 0.810461 18.0898 0.810461C18.0898 0.810461 19.0233 0.136313 19.4798 1.41256V24.2487C19.4798 24.4057 19.4465 24.56 19.3798 24.699C19.2464 24.9692 18.9566 25.2213 18.2617 25.1158L18.3104 25.1699Z" fill="#E7E5E5"/>
</g>
<defs>
<clipPath id="clip0_1699:396">
<rect width="26" height="25.6176" fill="white"/>
</clipPath>
</defs>
</svg>
