<svg width="76" height="61" viewBox="0 0 76 61" fill="none" xmlns="http://www.w3.org/2000/svg">
<path d="M10.3185 16.8881L0.5 11.7334V0.845636L10.3185 6.24581V16.8881Z" stroke="#00B3FF"/>
<path d="M10.3185 31.7635L0.5 26.6088V15.7211L10.3185 21.1213V31.7635Z" stroke="#00B3FF"/>
<path d="M10.3185 46.639L0.5 41.4843V30.5965L10.3185 35.9967V46.639Z" stroke="#00B3FF"/>
<path d="M23.3683 53.4005L13.5498 48.2458V37.3581L23.3683 42.7583V53.4005Z" stroke="#00B3FF"/>
<path d="M36.4181 60.1621L26.5996 55.0074V44.1197L36.4181 49.5198V60.1621Z" stroke="#00B3FF"/>
<path d="M23.3683 24.0554L13.5498 18.9006V8.0129L23.3683 13.4131V24.0554Z" stroke="#00B3FF"/>
<path d="M36.4857 31.0874L26.6672 25.9327V15.0449L36.4857 20.4451V31.0874Z" stroke="#00B3FF"/>
<path d="M76 41.7865V29.7509L65.1815 35.7011V47.4662L76 41.7865Z" fill="#00B3FF"/>
<path d="M62.9502 48.548V36.5125L52.1317 42.4626V54.2278L62.9502 48.548Z" fill="#00B3FF"/>
<path d="M49.9004 55.3096V43.274L39.0819 49.2242V60.9893L49.9004 55.3096Z" fill="#00B3FF"/>
<path d="M49.8328 26.2349V14.1993L39.0143 20.1495V31.9146L49.8328 26.2349Z" fill="#00B3FF"/>
<path d="M49.8328 41.1103V29.0747L39.0143 35.0249V46.79L49.8328 41.1103Z" fill="#00B3FF"/>
</svg>
